<svg width="200" height="200" viewBox="0 0 200 200" fill="none" xmlns="http://www.w3.org/2000/svg">
<mask id="mask0_98_405" style="mask-type:luminance" maskUnits="userSpaceOnUse" x="38" y="105" width="142" height="34">
<path d="M38.5732 105.442H179.723V138.023H38.5732V105.442Z" fill="white"/>
</mask>
<g mask="url(#mask0_98_405)">
<mask id="mask1_98_405" style="mask-type:luminance" maskUnits="userSpaceOnUse" x="38" y="105" width="142" height="34">
<path d="M45.3732 105.442H172.842C174.646 105.442 176.375 106.156 177.65 107.433C178.925 108.708 179.642 110.438 179.642 112.242V131.223C179.642 133.027 178.925 134.756 177.65 136.031C176.375 137.306 174.646 138.023 172.842 138.023H45.3732C43.5691 138.023 41.8399 137.306 40.5649 136.031C39.2899 134.756 38.5732 133.027 38.5732 131.223V112.242C38.5732 110.438 39.2899 108.708 40.5649 107.433C41.8399 106.156 43.5691 105.442 45.3732 105.442Z" fill="white"/>
</mask>
<g mask="url(#mask1_98_405)">
<path d="M38.5732 105.442H179.596V138.023H38.5732V105.442Z" fill="#1570EF"/>
</g>
</g>
<mask id="mask2_98_405" style="mask-type:luminance" maskUnits="userSpaceOnUse" x="16" y="70" width="80" height="68">
<path d="M16 70H95.4667V137.6H16V70Z" fill="white"/>
</mask>
<g mask="url(#mask2_98_405)">
<path d="M90.3395 70.0083H20.7749C18.2208 70.0083 16.1416 72.0917 16.1416 74.6437V122.494C16.1416 125.054 18.2208 127.133 20.7749 127.133H43.3999V132.706H42.7958C41.4791 132.706 40.4041 133.779 40.4041 135.098C40.4041 136.421 41.4791 137.494 42.7958 137.494H68.3104C69.6333 137.494 70.7041 136.421 70.7041 135.098C70.7041 133.779 69.6333 132.706 68.3104 132.706H67.7145V127.133H90.3395C92.8937 127.133 94.9729 125.054 94.9729 122.494V74.6437C94.9729 72.0917 92.8937 70.0083 90.3395 70.0083ZM91.3833 122.492C91.3833 123.069 90.9145 123.542 90.3395 123.542H20.7749C20.1979 123.542 19.7312 123.071 19.7312 122.492V74.6437C19.7312 74.0708 20.1958 73.5979 20.7749 73.5979H90.3395C90.9104 73.5979 91.3833 74.0687 91.3833 74.6437V122.492Z" fill="#1570EF"/>
</g>
<path d="M31.0327 101.258H26.2514C24.9285 101.258 23.8535 102.327 23.8535 103.65V119.298H33.4243V103.65C33.4243 102.327 32.3514 101.258 31.0327 101.258Z" fill="#1570EF"/>
<path d="M44.4917 96.5729H39.7104C38.3875 96.5729 37.3125 97.6479 37.3125 98.9645V119.298H46.8833V98.9645C46.8833 97.6437 45.8104 96.5729 44.4917 96.5729Z" fill="#1570EF"/>
<path d="M57.9497 105.696H53.1684C51.8455 105.696 50.7705 106.769 50.7705 108.087V119.298H60.3413V108.087C60.3393 106.769 59.2663 105.696 57.9497 105.696Z" fill="#1570EF"/>
<path d="M71.4077 94.1812H66.6264C65.3035 94.1812 64.2285 95.2541 64.2285 96.5729V119.298H73.7993V96.5729C73.7973 95.2541 72.7306 94.1812 71.4077 94.1812Z" fill="#1570EF"/>
<path d="M84.8626 89.4H80.0814C78.7585 89.4 77.6855 90.4687 77.6855 91.7916V119.298H87.2564V91.7916C87.2564 90.4666 86.1897 89.4 84.8626 89.4Z" fill="#1570EF"/>
<path d="M28.6415 95.5625C30.2248 95.5625 31.5081 94.275 31.5081 92.6896C31.5081 92.675 31.504 92.6562 31.504 92.6416L39.8269 89.7437C40.3519 90.4271 41.1706 90.875 42.0998 90.875C42.7602 90.875 43.3561 90.6437 43.8415 90.2687L52.8061 96.3458C52.7394 96.5979 52.6852 96.8562 52.6852 97.125C52.6852 98.7146 53.9686 99.9979 55.5581 99.9979C57.1415 99.9979 58.4248 98.7146 58.4248 97.125C58.4248 96.7396 58.3477 96.3729 58.2081 96.0375L67.5331 88.0625C67.9665 88.325 68.4706 88.4854 69.0165 88.4854C70.5998 88.4854 71.8831 87.2021 71.8831 85.6125C71.8831 85.5937 71.879 85.5687 71.879 85.5521L80.2165 82.5833C80.7415 83.2604 81.554 83.7041 82.4727 83.7041C84.0581 83.7041 85.3456 82.4146 85.3456 80.8312C85.3456 79.2416 84.0581 77.9583 82.4727 77.9583C80.8852 77.9583 79.6019 79.2416 79.6019 80.8312C79.6019 80.85 79.6061 80.875 79.6102 80.8937L71.2727 83.8604C70.7477 83.1833 69.9352 82.7396 69.0165 82.7396C67.4269 82.7396 66.1436 84.0229 66.1436 85.6125C66.1436 85.9979 66.2248 86.3687 66.3602 86.7041L57.0394 94.6812C56.6019 94.4166 56.1019 94.2583 55.5581 94.2583C54.8977 94.2583 54.2956 94.4896 53.8102 94.8625L44.8456 88.7812C44.9186 88.5354 44.9665 88.275 44.9665 88.0021C44.9665 86.4187 43.6831 85.1354 42.0998 85.1354C40.5102 85.1354 39.2269 86.4187 39.2269 88.0021C39.2269 88.0229 39.2311 88.0375 39.2311 88.0541L30.9081 90.9521C30.3831 90.2687 29.5644 89.8166 28.6415 89.8166C27.0519 89.8166 25.7686 91.1041 25.7686 92.6875C25.7686 94.2729 27.054 95.5625 28.6415 95.5625Z" fill="#1570EF"/>
<path d="M54.6307 126.932V117.316H50.9307V116.007H59.6807V117.316H55.9973V126.932H54.6307Z" fill="white"/>
<path d="M60.0547 126.932V118.832H61.1297L61.288 120.232C61.5818 119.745 61.9422 119.389 62.3714 119.166C62.8047 118.945 63.3651 118.832 64.0547 118.832H64.788V120.049H63.988C63.4984 120.049 63.0568 120.149 62.663 120.349C62.2672 120.545 61.9547 120.872 61.7214 121.332C61.488 121.789 61.3714 122.403 61.3714 123.174V126.932H60.0547Z" fill="white"/>
<path d="M67.8936 127.057C66.9144 127.057 66.1477 126.839 65.5936 126.399C65.0436 125.955 64.7686 125.353 64.7686 124.591C64.7686 123.853 65.0227 123.266 65.5352 122.832C66.0456 122.395 66.7206 122.174 67.5602 122.174H70.8686V121.874C70.8686 121.241 70.6706 120.747 70.2769 120.391C69.8811 120.03 69.3394 119.849 68.6519 119.849C68.1352 119.849 67.6811 119.966 67.2936 120.199C66.9102 120.432 66.6519 120.747 66.5186 121.141H65.1936C65.3644 120.364 65.7602 119.753 66.3769 119.307C66.9977 118.857 67.754 118.632 68.6436 118.632C69.3477 118.632 69.9644 118.766 70.4936 119.032C71.0269 119.295 71.4394 119.664 71.7352 120.141C72.0352 120.614 72.1852 121.161 72.1852 121.782V126.932H71.1019L70.9686 125.807C70.229 126.641 69.204 127.057 67.8936 127.057ZM66.0769 124.574C66.0769 124.97 66.2436 125.289 66.5769 125.532C66.9102 125.772 67.3623 125.891 67.9352 125.891C68.4956 125.891 68.9956 125.782 69.4352 125.566C69.8727 125.345 70.2206 125.041 70.4769 124.657C70.7373 124.27 70.8727 123.824 70.8852 123.324H67.6102C67.1602 123.324 66.7894 123.439 66.5019 123.666C66.2186 123.889 66.0769 124.191 66.0769 124.574Z" fill="white"/>
<path d="M76.8122 127.132C75.9997 127.132 75.283 126.951 74.6622 126.591C74.0393 126.224 73.5476 125.72 73.1872 125.074C72.8247 124.43 72.6455 123.697 72.6455 122.874C72.6455 122.053 72.8247 121.322 73.1872 120.682C73.5476 120.045 74.0393 119.545 74.6622 119.182C75.283 118.816 75.9997 118.632 76.8122 118.632C77.4893 118.632 78.108 118.761 78.6705 119.016C79.2372 119.266 79.7122 119.62 80.0955 120.074C80.4788 120.524 80.7372 121.057 80.8705 121.674H79.5455C79.3059 121.114 78.9455 120.674 78.4622 120.357C77.9788 120.036 77.4288 119.874 76.8122 119.874C76.2622 119.874 75.7705 120.003 75.3372 120.257C74.908 120.514 74.5726 120.87 74.3288 121.324C74.083 121.774 73.9622 122.291 73.9622 122.874C73.9622 123.457 74.083 123.978 74.3288 124.432C74.5726 124.882 74.908 125.236 75.3372 125.491C75.7705 125.747 76.2622 125.874 76.8122 125.874C77.4663 125.874 78.0413 125.699 78.5372 125.349C79.0309 124.999 79.3788 124.532 79.5788 123.949H80.9705C80.6976 124.928 80.1913 125.703 79.4538 126.274C78.7143 126.847 77.833 127.132 76.8122 127.132Z" fill="white"/>
<path d="M81.5576 126.932V115.382H82.8743V122.216H83.8826C84.5368 122.216 85.043 122.105 85.3993 121.882C85.7535 121.661 86.0451 121.222 86.2743 120.566L86.8826 118.832H88.2826L87.4743 121.049C87.141 121.945 86.693 122.57 86.1326 122.924L88.6576 126.932H87.0993L84.866 123.357C84.7097 123.391 84.5451 123.414 84.3743 123.424C84.2014 123.43 84.0243 123.432 83.841 123.432H82.8743V126.932H81.5576Z" fill="white"/>
<path d="M89.1738 126.932V116.007H95.8072V117.282H90.5488V120.732H95.4155V121.999H90.5488V125.649H95.9822V126.932H89.1738Z" fill="white"/>
<path d="M99.4775 127.057C98.4984 127.057 97.7317 126.839 97.1775 126.399C96.6275 125.955 96.3525 125.353 96.3525 124.591C96.3525 123.853 96.6067 123.266 97.1192 122.832C97.6296 122.395 98.3046 122.174 99.1442 122.174H102.453V121.874C102.453 121.241 102.255 120.747 101.861 120.391C101.465 120.03 100.923 119.849 100.236 119.849C99.7192 119.849 99.265 119.966 98.8775 120.199C98.4942 120.432 98.2359 120.747 98.1025 121.141H96.7775C96.9484 120.364 97.3442 119.753 97.9609 119.307C98.5817 118.857 99.338 118.632 100.228 118.632C100.932 118.632 101.548 118.766 102.078 119.032C102.611 119.295 103.023 119.664 103.319 120.141C103.619 120.614 103.769 121.161 103.769 121.782V126.932H102.686L102.553 125.807C101.813 126.641 100.788 127.057 99.4775 127.057ZM97.6609 124.574C97.6609 124.97 97.8275 125.289 98.1609 125.532C98.4942 125.772 98.9463 125.891 99.5192 125.891C100.08 125.891 100.58 125.782 101.019 125.566C101.457 125.345 101.805 125.041 102.061 124.657C102.321 124.27 102.457 123.824 102.469 123.324H99.1942C98.7442 123.324 98.3734 123.439 98.0859 123.666C97.8025 123.889 97.6609 124.191 97.6609 124.574Z" fill="white"/>
<path d="M107.804 127.132C106.742 127.132 105.892 126.882 105.254 126.382C104.615 125.878 104.284 125.214 104.263 124.391H105.563C105.579 124.88 105.784 125.266 106.179 125.549C106.579 125.828 107.125 125.966 107.821 125.966C108.438 125.966 108.921 125.861 109.271 125.649C109.625 125.432 109.804 125.145 109.804 124.782C109.804 124.416 109.617 124.12 109.246 123.891C108.879 123.664 108.3 123.48 107.513 123.341C106.467 123.164 105.692 122.878 105.188 122.482C104.688 122.089 104.438 121.574 104.438 120.941C104.438 120.214 104.715 119.647 105.271 119.241C105.825 118.836 106.592 118.632 107.571 118.632C108.571 118.632 109.367 118.855 109.963 119.299C110.563 119.739 110.89 120.357 110.946 121.157H109.646C109.606 120.707 109.406 120.366 109.046 120.132C108.69 119.899 108.204 119.782 107.588 119.782C107.004 119.782 106.548 119.886 106.221 120.091C105.892 120.291 105.729 120.574 105.729 120.941C105.729 121.286 105.896 121.555 106.229 121.749C106.563 121.939 107.15 122.116 107.996 122.282C110.067 122.689 111.104 123.53 111.104 124.807C111.104 125.507 110.804 126.072 110.204 126.499C109.604 126.922 108.804 127.132 107.804 127.132Z" fill="white"/>
<path d="M115.284 127.132C114.472 127.132 113.753 126.953 113.126 126.599C112.503 126.239 112.013 125.736 111.659 125.091C111.303 124.447 111.126 123.707 111.126 122.874C111.126 122.041 111.303 121.305 111.659 120.666C112.013 120.028 112.505 119.53 113.134 119.174C113.761 118.814 114.48 118.632 115.293 118.632C116.159 118.632 116.909 118.836 117.543 119.241C118.176 119.647 118.661 120.205 119.001 120.916C119.338 121.628 119.495 122.457 119.468 123.407H112.459C112.559 124.164 112.863 124.77 113.376 125.224C113.886 125.674 114.526 125.899 115.293 125.899C115.826 125.899 116.309 125.786 116.743 125.557C117.18 125.33 117.526 125.003 117.776 124.574H119.259C118.936 125.37 118.42 125.995 117.709 126.449C117.003 126.905 116.195 127.132 115.284 127.132ZM112.468 122.249H118.151C118.018 121.511 117.693 120.93 117.176 120.507C116.659 120.08 116.03 119.866 115.293 119.866C114.547 119.866 113.92 120.086 113.409 120.524C112.897 120.957 112.584 121.532 112.468 122.249Z" fill="white"/>
<path d="M127.299 127.132C126.493 127.132 125.751 126.993 125.074 126.716C124.401 126.432 123.818 126.041 123.324 125.541C122.829 125.036 122.445 124.436 122.174 123.741C121.908 123.047 121.774 122.289 121.774 121.466C121.774 120.645 121.908 119.889 122.174 119.199C122.445 118.505 122.829 117.907 123.324 117.407C123.818 116.903 124.401 116.511 125.074 116.232C125.751 115.949 126.493 115.807 127.299 115.807C128.16 115.807 128.951 115.966 129.674 116.282C130.395 116.599 131.016 117.053 131.533 117.641C132.049 118.224 132.426 118.92 132.666 119.724H131.199C130.916 118.93 130.426 118.307 129.733 117.857C129.043 117.403 128.245 117.174 127.341 117.174C126.529 117.174 125.81 117.357 125.183 117.724C124.56 118.086 124.068 118.591 123.708 119.241C123.351 119.886 123.174 120.628 123.174 121.466C123.174 122.311 123.351 123.055 123.708 123.699C124.068 124.345 124.56 124.849 125.183 125.216C125.81 125.582 126.529 125.766 127.341 125.766C128.268 125.766 129.091 125.528 129.808 125.049C130.524 124.566 131.024 123.914 131.308 123.091H132.758C132.541 123.903 132.168 124.611 131.641 125.216C131.118 125.822 130.485 126.295 129.741 126.632C128.995 126.966 128.183 127.132 127.299 127.132Z" fill="white"/>
<path d="M133.568 126.932V116.007H134.852L139.143 122.482L143.402 116.007H144.685V126.932H143.31V118.582L139.685 124.032H138.56L134.943 118.566V126.932H133.568Z" fill="white"/>
<path d="M146.239 126.932V116.007H149.939C150.76 116.007 151.475 116.161 152.081 116.466C152.691 116.766 153.164 117.189 153.498 117.732C153.831 118.278 153.998 118.924 153.998 119.674C153.998 120.424 153.831 121.074 153.498 121.624C153.164 122.17 152.691 122.591 152.081 122.891C151.475 123.191 150.76 123.341 149.939 123.341H147.614V126.932H146.239ZM147.614 122.066H149.906C151.693 122.066 152.589 121.274 152.589 119.691C152.589 118.107 151.693 117.316 149.906 117.316H147.614V122.066Z" fill="white"/>
<path d="M154.588 126.932V116.007H158.363C159.49 116.007 160.471 116.241 161.305 116.707C162.142 117.17 162.796 117.807 163.263 118.624C163.734 119.441 163.971 120.389 163.971 121.466C163.971 122.539 163.734 123.486 163.263 124.307C162.796 125.13 162.142 125.774 161.305 126.241C160.471 126.703 159.49 126.932 158.363 126.932H154.588ZM155.963 125.624H158.363C159.196 125.624 159.925 125.449 160.555 125.099C161.188 124.749 161.68 124.264 162.03 123.641C162.384 123.014 162.563 122.289 162.563 121.466C162.563 120.639 162.382 119.916 162.021 119.299C161.665 118.678 161.167 118.191 160.53 117.841C159.896 117.491 159.155 117.316 158.305 117.316H155.963V125.624Z" fill="white"/>
<path d="M164.841 126.932V116.007H166.216V126.932H164.841Z" fill="white"/>
</svg>
